<?xml version="1.0" encoding="utf-8"?>
<!-- Generator: Adobe Illustrator 19.0.0, SVG Export Plug-In . SVG Version: 6.00 Build 0)  -->
<svg width="36" height="36" version="1.1" id="圖層_1" xmlns="http://www.w3.org/2000/svg" xmlns:xlink="http://www.w3.org/1999/xlink" x="0px" y="0px"
	 viewBox="-279 402.9 36 36" style="enable-background:new -279 402.9 36 36;" xml:space="preserve">
<title>IG Logo</title>
<path d="M-246.1,407.4c-0.8-3.3-3.8-5.2-7.2-4.8c-4.5,0.6-6.9,4.8-8.7,8.5c-1.1,2.2,2.4,3.9,3.4,1.7c0.9-1.9,1.9-4.1,3.6-5.4
	c1.6-1.2,2.9-1.4,4.2,0.2c1.3,1.5,1,2.4,0.7,4.2c-0.6,4.5-3.1,10.8-8.9,9c-2.4-0.7-3.1,3-0.8,3.8
	C-250.3,427.5-244.3,415.1-246.1,407.4z"/>
<path d="M-274.9,433.2c0.8,3.3,3.8,5.2,7.2,4.8c4.5-0.6,6.9-4.8,8.7-8.5c1.1-2.2-2.4-3.9-3.4-1.7c-0.9,1.9-1.9,4.1-3.6,5.4
	c-1.6,1.2-2.9,1.4-4.2-0.2c-1.3-1.5-1-2.4-0.7-4.2c0.6-4.5,3.1-10.8,8.9-9c2.4,0.7,3.1-3,0.8-3.8
	C-270.7,413.1-276.7,425.4-274.9,433.2z"/>
</svg>
