<?xml version="1.0" encoding="utf-8"?>
<!-- Generator: Adobe Illustrator 19.0.0, SVG Export Plug-In . SVG Version: 6.00 Build 0)  -->
<svg width="36" height="36" version="1.1" id="圖層_1" xmlns="http://www.w3.org/2000/svg" xmlns:xlink="http://www.w3.org/1999/xlink" x="0px" y="0px"
	 viewBox="-279 402.9 36 36" style="enable-background:new -279 402.9 36 36;" xml:space="preserve">
<title>IG Logo</title>
<path d="M-269,416.1c-1.1,0.3-2.2,0.6-3.2,0.9c0.1-1.6,0.2-3.3,0.4-4.9c0.3-2.4-0.1-0.7,1.3,0.3c2,1.5,4.5-1.4,2.5-2.9
	c-1.6-1.2-2.7-3.2-5-2.6c-1.5,0.4-2,1.5-2.4,2.9c-0.7,2.4-0.9,5.1-0.9,7.9c-0.2,0-0.3,0-0.5,0.1c-2.5,0.2-2.2,4.1,0.3,3.8
	c0.1,0,0.2,0,0.3,0c0.2,3,0.7,6,1.2,8.7c0.4,2.4,4.3,2.2,3.8-0.3c-0.6-3-0.9-6-1.1-9.1c1.5-0.3,3-0.7,4.5-1.2
	C-265.4,419-266.7,415.4-269,416.1z"/>
<path d="M-254,418.3c2-2,3.4-4.7,3.3-7.6c-0.3-5.3-6.7-4-10.5-2.8c-1.1-0.3-2.6,0.4-2.5,1.9c0.2,6.6,0.4,13.2,0.6,19.9
	c0,1.3,1.1,1.8,2.1,1.7c0.1,0.7,0.5,1.4,1.4,1.6c5.7,1.8,11.9-1.6,12.4-7.8C-246.9,420.2-250.2,418.8-254,418.3z M-255.2,413.1
	c-0.2,2.1-2.7,3.8-4.5,4.7c-0.1-2.1-0.1-4.2-0.2-6.3c1-0.3,2.1-0.6,3.2-0.7C-254.8,411.2-254.3,412-255.2,413.1z M-251.2,425.6
	c-0.4,3.9-4.8,4.6-7.7,3.6c-0.2,0-0.3-0.1-0.4-0.1c-0.1-2.5-0.1-5-0.2-7.5c0.1,0,0.2,0,0.2,0C-256.7,421.9-250.7,420.5-251.2,425.6z
	"/>
</svg>
